<svg id="Capa_1" enable-background="new 0 0 512 512" height="512" viewBox="0 0 512 512" width="512" xmlns="http://www.w3.org/2000/svg" xmlns:xlink="http://www.w3.org/1999/xlink"><linearGradient id="SVGID_1_" gradientUnits="userSpaceOnUse" x1="256" x2="256" y1="512" y2="0"><stop offset="0" stop-color="#fd3a84"/><stop offset="1" stop-color="#ffa68d"/></linearGradient><g><g><path d="m406 0h-330c-8.284 0-15 6.716-15 15v482c0 8.284 6.716 15 15 15h330c24.813 0 45-20.187 45-45v-422c0-24.813-20.187-45-45-45zm-195 30h60v107.972l-21.68-14.453c-5.038-3.358-11.603-3.358-16.641 0l-21.679 14.453zm-90 452h-30v-452h30zm300-15c0 8.271-6.729 15-15 15h-255v-452h30v136c0 5.532 3.045 10.615 7.922 13.225 4.879 2.611 10.796 2.324 15.398-.744l36.68-24.453 36.68 24.453c4.609 3.073 10.529 3.351 15.398.744 4.877-2.61 7.922-7.693 7.922-13.225v-136h105c8.271 0 15 6.729 15 15zm-45-166h-180c-8.284 0-15 6.716-15 15s6.716 15 15 15h180c8.284 0 15-6.716 15-15s-6.716-15-15-15zm-30 60h-120c-8.284 0-15 6.716-15 15s6.716 15 15 15h120c8.284 0 15-6.716 15-15s-6.716-15-15-15z" fill="url(#SVGID_1_)"/></g></g></svg>