<svg id="Capa_1" enable-background="new 0 0 512 512" height="512" viewBox="0 0 512 512" width="512" xmlns="http://www.w3.org/2000/svg" xmlns:xlink="http://www.w3.org/1999/xlink"><linearGradient id="lg1"><stop offset="0" stop-color="#a93aff"/><stop offset="1" stop-color="#ff81ff"/></linearGradient><linearGradient id="SVGID_1_" gradientUnits="userSpaceOnUse" x1="256" x2="256" xlink:href="#lg1" y1="512" y2="0"/><linearGradient id="SVGID_2_" gradientUnits="userSpaceOnUse" x1="347" x2="347" xlink:href="#lg1" y1="240" y2="210"/><linearGradient id="SVGID_3_" gradientUnits="userSpaceOnUse" x1="347" x2="347" xlink:href="#lg1" y1="330" y2="300"/><g><path d="m507.587 124.376-119.963-119.963c-1.388-1.392-3.051-2.496-4.896-3.259-1.833-.758-3.776-1.154-5.728-1.154h-180c-8.291 0-15 6.709-15 15v45h-167c-8.291 0-15 6.709-15 15v422c0 8.291 6.709 15 15 15h302c8.291 0 15-6.709 15-15v-47h165c8.291 0 15-6.709 15-15v-300c0-1.952-.396-3.895-1.154-5.728-.763-1.845-1.867-3.508-3.259-4.896zm-115.587-73.165 68.789 68.789h-68.789zm-90 430.789h-272v-392h152v345c0 8.291 6.709 15 15 15h105zm180-62h-270v-390h150v105c0 8.291 6.709 15 15 15h105z" fill="url(#SVGID_1_)"/><path d="m242 225c0 8.291 6.709 15 15 15h180c8.291 0 15-6.709 15-15s-6.709-15-15-15h-180c-8.291 0-15 6.709-15 15z" fill="url(#SVGID_2_)"/><path d="m437 300h-180c-8.291 0-15 6.709-15 15s6.709 15 15 15h180c8.291 0 15-6.709 15-15s-6.709-15-15-15z" fill="url(#SVGID_3_)"/></g></svg>